{"title":"WWE The Shield Debut Match- Team Hell No &amp; Ryback VS The Shi","uid":10320216,"size":187057990,"categoryP":"video","categoryS":"other","magnet":"?xt=urn:btih:6ee8ca19d577fa20ad85603d072d9e3ca6c8218e&amp;dn=WWE+The+Shield+Debut+Match-+Team+Hell+No+%26amp%3B+Ryback+VS+The+Shi&amp;tr=udp%3A%2F%2Ftracker.openbittorrent.com%3A80&amp;tr=udp%3A%2F%2Fopen.demonii.com%3A1337&amp;tr=udp%3A%2F%2Ftracker.coppersurfer.tk%3A6969&amp;tr=udp%3A%2F%2Fexodus.desync.com%3A6969","seeders":1,"leechers":0,"uploader":"RDS31","files":1,"time":1402298432,"description":"TLC 2012\n\nGeneral\nFormat : MPEG-4\nFormat profile : Base Media\nCodec ID : isom\nFile size : 178 MiB\nDuration : 29mn 53s\nOverall bit rate mode : Variable\nOverall bit rate : 834 Kbps\nTagged date : UTC 2013-03-20 04:16:05\nWriting application : Lavf54.59.106\n\nVideo\nID : 1\nFormat : AVC\nFormat/Info : Advanced Video Codec\nFormat profile : &lt;a class=&quot;__cf_email__&quot; href=&quot;/cdn-cgi/l/email-protection&quot; data-cfemail=&quot;2e664749466e621d001e&quot;&gt;[email&amp;#160;protected]&lt;/a&gt;&lt;script cf-hash='f9e31' type=&quot;text/javascript&quot;&gt;\n/* &lt;![CDATA[ */!function(){try{var t=&quot;currentScript&quot;in document?document.currentScript:function(){for(var t=document.getElementsByTagName(&quot;script&quot;),e=t.length;e--;)if(t[e].getAttribute(&quot;cf-hash&quot;))return t[e]}();if(t&amp;&amp;t.previousSibling){var e,r,n,i,c=t.previousSibling,a=c.getAttribute(&quot;data-cfemail&quot;);if(a){for(e=&quot;&quot;,r=parseInt(a.substr(0,2),16),n=2;a.length-n;n+=2)i=parseInt(a.substr(n,2),16)^r,e+=String.fromCharCode(i);e=document.createTextNode(e),c.parentNode.replaceChild(e,c)}}}catch(u){}}();/* ]]&gt; */&lt;/script&gt;\nFormat settings, CABAC : Yes\nFormat settings, ReFrames : 4 frames\nCodec ID : avc1\nCodec ID/Info : Advanced Video Coding\nDuration : 29mn 53s\nBit rate : 699 Kbps\nWidth : 704 pixels\nHeight : 400 pixels\nDisplay aspect ratio : 16:9\nFrame rate mode : Constant\nFrame rate : 25.000 fps\nColor space : YUV\nChroma subsampling : 4:2:0\nBit depth : 8 bits\nScan type : Progressive\nBits/(Pixel*Frame) : 0.099\nStream size : 149 MiB (84%)\nWriting library : x264 core 130\n\nAudio\nID : 2\nFormat : AAC\nFormat/Info : Advanced Audio Codec\nFormat profile : LC\nCodec ID : 40\nDuration : 29mn 53s\nBit rate mode : Variable\nBit rate : 128 Kbps\nMaximum bit rate : 800 Kbps\nChannel(s) : 2 channels\nChannel positions : Front: L R\nSampling rate : 44.1 KHz\nCompression mode : Lossy\nDelay relative to video : 80ms\nStream size : 27.4 MiB (15%)\n\nEnjoy!","torrent":{"xt":"urn:btih:6ee8ca19d577fa20ad85603d072d9e3ca6c8218e","amp;dn":"WWE+The+Shield+Debut+Match-+Team+Hell+No+%26amp%3B+Ryback+VS+The+Shi","amp;tr":["udp%3A%2F%2Ftracker.openbittorrent.com%3A80","udp%3A%2F%2Fopen.demonii.com%3A1337","udp%3A%2F%2Ftracker.coppersurfer.tk%3A6969","udp%3A%2F%2Fexodus.desync.com%3A6969"],"infoHash":"6ee8ca19d577fa20ad85603d072d9e3ca6c8218e","infoHashBuffer":{"type":"Buffer","data":[110,232,202,25,213,119,250,32,173,133,96,61,7,45,158,60,166,200,33,142]},"announce":[],"urlList":[]}}